# xmcd
#
# Track frame offsets:
#	182
#	17007
#	34107
#	47187
#	64035
#	82247
#	101152
#	114985
#	130470
#	146065
#	160782
#	174547
#	189640
#	208195
#	225182
#	242547
#
# Disc length: 3453 seconds
#
# Revision: 0
# Processed by: cddbd v1.5.1PL2 Copyright (c) Steve Scherf et al.
# Submitted via: EasyCDDAExtractor 9.1.3.1
#
DISCID=dd0d7b10
DTITLE=Dick Rivers - Vivre comme ça...
DYEAR=1999
DGENRE=Chanson
TTITLE0=Rien d'important
TTITLE1=La trahison des mots
TTITLE2=Eternelle
TTITLE3=Touriste
TTITLE4=Même si tu pars
TTITLE5=Vitrine Girl (Gabrielle)
TTITLE6=Dans le ghetto
TTITLE7=C'est étrange
TTITLE8=Comme l'eau qui coule
TTITLE9=La frontière
TTITLE10=Ce qu'on raconte en ville
TTITLE11=Interdit
TTITLE12=Vivre comme ça
TTITLE13=La trahison des mots (Live)
TTITLE14=Dans le ghetto (Live)
TTITLE15=Comme de l'eau qui coule (Live)
EXTD=
EXTT0=
EXTT1=
EXTT2=
EXTT3=
EXTT4=
EXTT5=
EXTT6=
EXTT7=
EXTT8=
EXTT9=
EXTT10=
EXTT11=
EXTT12=
EXTT13=
EXTT14=
EXTT15=
PLAYORDER=
